<svg id="Capa_2" xmlns="http://www.w3.org/2000/svg" xmlns:xlink="http://www.w3.org/1999/xlink" viewBox="0 0 689.021 284.2559"><defs><style>
      .cls-1 {
        fill: #fc0;
      }
      .cls-1, .cls-2, .cls-3 {
        stroke: #333;
      }
      .cls-1, .cls-3 {
        stroke-miterlimit: 10;
      }
      .cls-2 {
        stroke-linecap: round;
        stroke-linejoin: round;
        stroke-width: 2px;
      }
      .cls-2, .cls-4 {
        fill: #333;
      }
      .cls-5, .cls-4 {
        stroke-width: 0px;
      }
      .cls-5, .cls-3 {
        fill: #b00020;
      }
      .cls-6 {
        filter: url(#drop-shadow-1);
      }
    </style><filter id="drop-shadow-1" filterUnits="userSpaceOnUse"><feOffset dx="4" dy="4"></feOffset><feGaussianBlur result="blur" stdDeviation="2"></feGaussianBlur><feFlood flood-color="#000" flood-opacity=".66"></feFlood><feComposite in2="blur" operator="in"></feComposite><feComposite in="SourceGraphic"></feComposite></filter></defs><g id="svg149828"><g id="slogan"><g id="path149836"><polygon class="cls-5" points="226.37 272.5555 226.37 248.7557 218.4701 248.7557 218.4701 242.7557 240.7699 242.7557 240.7699 248.7557 232.869 248.7557 232.9691 272.5555 226.37 272.5555"></polygon><path class="cls-4" d="m240.5201,243.0059v5.5h-7.9021l.0021.5021.0979,23.2979h-6.0979v-23.8h-7.9v-5.5h21.8m.5-.5h-22.8v6.5h7.9v23.8h7.1l-.1-23.8h7.9v-6.5h0Z"></path></g><g id="path149838"><path class="cls-5" d="m250.0541,273.1043c-3.6855,0-7.2202-1.8916-9.2251-4.9365-.2856-.4756-.4844-.9736-.6768-1.4551l-.019-.0479-.0366-.0361c-.0571-.0576-.1206-.1855-.127-.2305v-.1025l-.0723-.0664c-.0527-.0527-.1274-.1885-.1274-.3232-.209-.5713-.3042-1.0459-.4048-1.5488-.792-5.0518,2.126-9.9834,6.9395-11.7158,1.1885-.4277,2.4258-.6445,3.6787-.6445,3.7539,0,7.2495,1.9678,9.1216,5.1357.2964.3984.4927.8906.6831,1.3662l.019.0479.0366.0361c.0571.0576.1206.1855.127.2305l-.0005.0928.1074.46c.1812.459.3452.8701.3838,1.2666l-13.8169,4.9785.3076.2793c.8018.7295,1.9194,1.1475,3.0654,1.1475.5615,0,1.0981-.1006,1.5952-.2998,1.3105-.5039,2.3066-1.4873,2.7646-2.7188l5.7295,1.8486c-.9976,3.0312-3.3452,5.4297-6.4746,6.6035-1.1421.4199-2.3467.6328-3.5776.6328h-.0005Zm-.0527-15.2305c-.5474,0-1.0771.1006-1.5742.2998-1.4727.4902-2.6089,1.8652-2.9521,3.583l-.0869.4346,8.0273-2.8984-.335-.2793c-.8823-.7344-1.9761-1.1396-3.0791-1.1396Z"></path><path class="cls-4" d="m249.9833,252.2465c3.6661,0,7.0789,1.9212,8.9063,5.0138l.014.0237.0165.022c.2603.347.4426.8028.6357,1.2854l.0473.0994.0624.0677c.0158.0171.0415.061.0547.0916v.1175l.0149.0597.1.4.0083.0331.0126.0315c.1362.3406.267.6675.3281.9758l-13.2334,4.7679-.7815.2816.6147.5588c.8472.7702,2.0261,1.2119,3.2343,1.2119.5929,0,1.1608-.1069,1.6815-.3152,1.301-.5004,2.3068-1.4491,2.8229-2.6437l5.2652,1.6985c-1.0166,2.847-3.2677,5.0946-6.2401,6.2093-1.1163.4101-2.2917.618-3.4938.618-3.602,0-7.0569-1.8483-9.0051-4.8059-.2794-.4656-.4664-.9332-.6644-1.4283l-.0472-.0991-.0624-.0677c-.018-.0196-.0489-.0738-.0594-.1037l-.013-.1536-.1272-.1423c-.0194-.0217-.0551-.0944-.0551-.148v-.0963l-.0358-.0894c-.1829-.4573-.2757-.9211-.3703-1.3918-.7754-4.9433,2.0741-9.7596,6.7754-11.4521,1.1609-.4179,2.3701-.6298,3.5939-.6298m-4.9274,10.3308l.834-.3012,7.2-2.6.8201-.2962-.6699-.5582c-.9269-.7724-2.0772-1.1978-3.239-1.1978-.5791,0-1.1399.1069-1.6391.3076-1.5709.5236-2.771,1.9706-3.1322,3.7763l-.1739.8695m4.9274-10.8308c-1.2508,0-2.5221.2126-3.7632.6594-5,1.8-7.9,6.9-7.1,12,.1.5.2,1,.4,1.5,0,.2.1.4.2.5,0,.1.1.3.2.4.2.5.4,1,.7,1.5,2.0372,3.0935,5.6691,5.0486,9.4338,5.0486,1.2249,0,2.4633-.2068,3.6662-.6486,3.2-1.2,5.7-3.7,6.7-7l-6.2-2c-.4,1.3-1.4,2.3-2.7,2.8-.4807.1923-.9926.2819-1.502.2819-1.0801,0-2.1505-.4024-2.8979-1.0819l13.6-4.9c0-.5-.2-1-.4-1.5l-.1-.4v-.1c0-.1-.1-.3-.2-.4-.2-.5-.4-1-.7-1.4-1.9546-3.3078-5.5488-5.2594-9.3368-5.2594h0Zm-4.2632,10.0594c.3-1.5,1.3-2.9,2.8-3.4.4807-.1923.9823-.2819,1.4811-.2819,1.0575,0,2.1035.4024,2.9189,1.0819l-7.2,2.6h0Z"></path></g><g id="path149840"><path class="cls-5" d="m273.9203,273.0555c-5.8726,0-10.6504-4.8223-10.6504-10.75,0-5.8721,4.7778-10.6494,10.6504-10.6494,3.4653,0,6.6812,1.6719,8.6528,4.4844l-4.9912,3.4199c-.8599-1.1504-2.1802-1.8047-3.6616-1.8047-2.521,0-4.6504,2.1299-4.6504,4.6504,0,2.6074,2.0425,4.6494,4.6504,4.6494,1.4536,0,2.7354-.6152,3.5562-1.6982l4.8862,3.5967c-2.0972,2.5732-5.2339,4.1016-8.4424,4.1016Z"></path><path class="cls-4" d="m273.9201,251.9059c3.2982,0,6.365,1.551,8.3004,4.1732l-4.5867,3.1428c-.9073-1.0966-2.2348-1.716-3.7137-1.716-2.6561,0-4.9,2.2439-4.9,4.9,0,2.7477,2.1523,4.9,4.9,4.9,1.4457,0,2.731-.5788,3.6013-1.6047l4.4791,3.296c-2.0476,2.3938-5.0315,3.8087-8.0804,3.8087-5.7346,0-10.4-4.7103-10.4-10.5,0-5.7346,4.6654-10.4,10.4-10.4m0-.5c-6,0-10.9,4.9-10.9,10.9s4.9,11,10.9,11c3.4,0,6.7-1.7,8.8-4.4l-5.3-3.9c-.8,1.2-2.1,1.8-3.5,1.8-2.4,0-4.4-1.9-4.4-4.4,0-2.4,2-4.4,4.4-4.4,1.5,0,2.8.7,3.6,1.9l5.4-3.7c-2-3-5.4-4.8-9-4.8h0Z"></path></g><g id="path149842"><path class="cls-5" d="m301.0702,272.6561v-10.4502c0-2.4541-1.9966-4.4502-4.4502-4.4502s-4.4497,1.9961-4.4497,4.4502v10.3496h-6v-31h6v11.1143l.3398-.1309c1.3506-.5195,2.7334-.7832,4.1099-.7832,5.7622,0,10.4502,4.6875,10.4502,10.4502v10.4502h-6Z"></path><path class="cls-4" d="m291.9201,241.8058v11.228l.6795-.2613c1.3227-.5087,2.6754-.7667,4.0205-.7667,5.6243,0,10.2,4.5757,10.2,10.2v10.2h-5.5v-10.2c0-2.5916-2.1084-4.7-4.7-4.7s-4.7,2.1084-4.7,4.7v10.1h-5.5v-30.5h5.5m.5-.5h-6.5v31.5h6.5v-10.6c0-2.3,1.9-4.2,4.2-4.2s4.2,1.9,4.2,4.2v10.7h6.5v-10.7c0-5.9-4.8-10.7-10.7-10.7-1.5,0-2.9.3-4.2.8v-11h0Z"></path></g><g id="path149844"><path class="cls-5" d="m325.87,272.6561v-10.4502c0-2.4541-1.9961-4.4502-4.4497-4.4502s-4.4502,1.9961-4.4502,4.4502v10.4502h-6v-10.4502c0-5.7627,4.688-10.4502,10.4502-10.4502s10.4497,4.6875,10.4497,10.4502v10.4502h-6Z"></path><path class="cls-4" d="m321.4201,252.0059c5.6243,0,10.2,4.5757,10.2,10.2v10.2h-5.5v-10.2c0-2.5916-2.1084-4.7-4.7-4.7s-4.7,2.1084-4.7,4.7v10.2h-5.5v-10.2c0-5.6243,4.5757-10.2,10.2-10.2m0-.5c-5.9,0-10.7,4.8-10.7,10.7v10.7h6.5v-10.7c0-2.3,1.9-4.2,4.2-4.2s4.2,1.9,4.2,4.2v10.7h6.5v-10.7c0-5.9-4.8-10.7-10.7-10.7h0Z"></path></g><g id="path149846"><path class="cls-5" d="m345.8202,273.1561c-5.8726,0-10.6499-4.8223-10.6499-10.75,0-5.873,4.7773-10.6504,10.6499-10.6504s10.6504,4.7773,10.6504,10.6504c0,5.9277-4.7778,10.75-10.6504,10.75Zm0-15.4004c-2.5205,0-4.6499,2.1299-4.6499,4.6504s2.1294,4.6494,4.6499,4.6494c2.6074,0,4.6499-2.042,4.6499-4.6494,0-2.5205-2.1294-4.6504-4.6499-4.6504Z"></path><path class="cls-4" d="m345.8201,252.0059c5.7346,0,10.4,4.6654,10.4,10.4,0,5.7897-4.6654,10.5-10.4,10.5s-10.4-4.7103-10.4-10.5c0-5.7346,4.6654-10.4,10.4-10.4m0,15.3c2.7477,0,4.9-2.1523,4.9-4.9,0-2.6561-2.2439-4.9-4.9-4.9s-4.9,2.2439-4.9,4.9,2.2439,4.9,4.9,4.9m0-15.8c-6,0-10.9,4.9-10.9,10.9,0,6.1,4.9,11,10.9,11s10.9-4.9,10.9-11c0-6-4.9-10.9-10.9-10.9h0Zm0,15.3c-2.4,0-4.4-2-4.4-4.4s2-4.4,4.4-4.4,4.4,2,4.4,4.4-1.9,4.4-4.4,4.4h0Z"></path></g><g id="path149848"><rect class="cls-5" x="360.37" y="241.6561" width="6" height="31"></rect><path class="cls-4" d="m366.1201,241.9059v30.5h-5.5v-30.5h5.5m.5-.5h-6.5v31.5h6.5v-31.5h0Z"></path></g><g id="path149850"><path class="cls-5" d="m380.8202,273.1561c-5.873,0-10.6504-4.8223-10.6504-10.75,0-5.873,4.7773-10.6504,10.6504-10.6504s10.6504,4.7773,10.6504,10.6504c0,5.9277-4.7773,10.75-10.6504,10.75Zm.0996-15.4004c-2.5205,0-4.6494,2.1299-4.6494,4.6504s2.1289,4.6494,4.6494,4.6494c2.6074,0,4.6504-2.042,4.6504-4.6494,0-2.5205-2.1299-4.6504-4.6504-4.6504Z"></path><path class="cls-4" d="m380.8201,252.0059c5.7346,0,10.4,4.6654,10.4,10.4,0,5.7897-4.6654,10.5-10.4,10.5s-10.4-4.7103-10.4-10.5c0-5.7346,4.6654-10.4,10.4-10.4m.1,15.3c2.7477,0,4.9-2.1523,4.9-4.9,0-2.6561-2.2439-4.9-4.9-4.9s-4.9,2.2439-4.9,4.9,2.2439,4.9,4.9,4.9m-.1-15.8c-6,0-10.9,4.9-10.9,10.9,0,6.1,4.9,11,10.9,11s10.9-4.9,10.9-11c0-6-4.9-10.9-10.9-10.9h0Zm.1,15.3c-2.4,0-4.4-2-4.4-4.4s2-4.4,4.4-4.4,4.4,2,4.4,4.4-1.9,4.4-4.4,4.4h0Z"></path></g><g id="path149852"><path class="cls-5" d="m405.0204,283.7557c-2.5732,0-5.0879-.4688-7.4785-1.3926l2.123-5.6328c1.6836.6387,3.5244.9756,5.3428.9756,1.8174,0,3.6338-.3369,5.2715-.9746l2.2168,5.6328c-2.3896.9238-4.9033,1.3916-7.4756,1.3916Zm0-10.5996c-5.873,0-10.6504-4.8223-10.6504-10.75,0-5.873,4.7773-10.6504,10.6504-10.6504h11.25v6h-1.6289l.1494.3486c.583,1.3623.8789,2.8096.8789,4.3018,0,5.9277-4.7773,10.75-10.6494,10.75Zm0-15.4004c-2.5205,0-4.6504,2.1299-4.6504,4.6504s2.1299,4.6494,4.6504,4.6494c2.6074,0,4.6494-2.042,4.6494-4.6494,0-2.5205-2.1289-4.6504-4.6494-4.6504Z"></path><path class="cls-4" d="m416.0201,252.0059v5.5h-1.7583l.2987.697c.5704,1.3309.8596,2.745.8596,4.203,0,5.7897-4.6654,10.5-10.4,10.5s-10.4-4.7103-10.4-10.5c0-5.7346,4.6654-10.4,10.4-10.4h11m-11,15.3c2.7477,0,4.9-2.1523,4.9-4.9,0-2.6561-2.2439-4.9-4.9-4.9s-4.9,2.2439-4.9,4.9,2.2439,4.9,4.9,4.9m-5.209,9.7453c1.6469.5929,3.4325.9047,5.1964.9047,1.7624,0,3.5249-.3113,5.1297-.9031l2.0333,5.168c-2.2905.853-4.6934,1.2851-7.1505,1.2851-2.4595,0-4.8647-.4329-7.1572-1.2876l1.9482-5.1671m16.709-25.5453h-11.5c-6,0-10.9,4.9-10.9,10.9s4.9,11,10.9,11,10.9-4.9,10.9-11c0-1.5-.3-3-.9-4.4h1.5v-6.5h0Zm-11.5,15.3c-2.4,0-4.4-2-4.4-4.4s2-4.4,4.4-4.4,4.4,2,4.4,4.4-1.9,4.4-4.4,4.4h0Zm5.4,9.6c-1.7.7-3.55,1.05-5.4125,1.05s-3.7375-.35-5.4875-1.05l-2.3,6.1c2.5,1,5.1,1.5,7.8,1.5s5.3-.5,7.8-1.5l-2.4-6.1h0Z"></path></g><g id="path149854"><path class="cls-5" d="m420.2704,272.6561v-20.4004h6v20.4004h-6Zm2.9502-23.6006c-1.873,0-3.3564-1.4883-3.4502-3.4609,0-1.8906,1.5479-3.4385,3.4502-3.4385s3.4492,1.5479,3.4492,3.4502-1.5469,3.4492-3.4492,3.4492Z"></path><path class="cls-4" d="m423.2201,242.4058c1.7645,0,3.2,1.4355,3.2,3.2s-1.4355,3.2-3.2,3.2c-1.7371,0-3.113-1.3859-3.2-3.2,0-1.7645,1.4355-3.2,3.2-3.2m2.8,10.1v19.9h-5.5v-19.9h5.5m-2.8-10.6c-2,0-3.7,1.6-3.7,3.7.1,2.1,1.7,3.7,3.7,3.7s3.7-1.6,3.7-3.7c0-2-1.6-3.7-3.7-3.7h0Zm3.3,10.1h-6.5v20.9h6.5v-20.9h0Z"></path></g><g id="path149856"><path class="cls-5" d="m440.7538,273.1043c-3.6855,0-7.2197-1.8916-9.2246-4.9365-.2842-.4736-.4746-.9502-.6768-1.4551l-.0195-.0479-.0361-.0361c-.0576-.0576-.1211-.1855-.127-.2305v-.1025l-.0723-.0654c-.0527-.0537-.1279-.1895-.1279-.3242-.2109-.5762-.3086-1.0703-.4043-1.5488-.792-5.0518,2.126-9.9834,6.9395-11.7158,1.1875-.4277,2.4258-.6445,3.6777-.6445,3.7549,0,7.25,1.9678,9.123,5.1357.2949.3965.4834.8682.6826,1.3662l.0195.0479.0361.0361c.0566.0566.1201.1855.126.2305v.0928l.1084.4609c.1729.4375.3428.8623.3828,1.2656l-13.8164,4.9785.3076.2793c.8018.7295,1.9189,1.1475,3.0654,1.1475.5615,0,1.0986-.1006,1.5957-.2998,1.3105-.5039,2.3057-1.4873,2.7637-2.7188l5.7295,1.8486c-.998,3.0312-3.3447,5.4297-6.4746,6.6035-1.1426.4199-2.3467.6328-3.5771.6328h-.001Zm-.0518-15.2305c-.5479,0-1.0771.1006-1.5742.2998-1.4717.4902-2.6084,1.8652-2.9531,3.583l-.0869.4346,8.0273-2.8984-.335-.2793c-.8828-.7344-1.9756-1.1396-3.0781-1.1396Z"></path><path class="cls-4" d="m440.6833,252.2465c3.6661,0,7.0789,1.9212,8.9063,5.0138l.014.0237.0165.022c.2603.347.4426.8028.6357,1.2854l.0473.0994.0624.0677c.0158.0171.0415.061.0547.0916v.1175l.0149.0597.1.4.0083.0331.0126.0315c.1362.3406.267.6675.3281.9758l-13.2334,4.7679-.7816.2816.6147.5588c.8472.7702,2.0261,1.2119,3.2343,1.2119.5929,0,1.1608-.1069,1.6815-.3152,1.301-.5004,2.3068-1.4491,2.823-2.6437l5.2652,1.6985c-1.0166,2.847-3.2677,5.0946-6.2401,6.2093-1.1163.4101-2.2917.618-3.4938.618-3.6021,0-7.0569-1.8483-9.0051-4.8059-.2793-.4655-.4663-.9329-.6643-1.4279l-.0474-.0996-.0624-.0677c-.018-.0196-.0489-.0738-.0594-.1037l-.013-.1536-.1272-.1423c-.0194-.0217-.0551-.0944-.0551-.148v-.0963l-.0358-.0894c-.183-.4574-.2757-.9213-.3703-1.3918-.7754-4.9433,2.0741-9.7596,6.7754-11.4521,1.1609-.4179,2.3701-.6298,3.5939-.6298m-4.9274,10.3308l.834-.3012,7.2-2.6.8201-.2962-.6699-.5582c-.9269-.7724-2.0772-1.1978-3.239-1.1978-.5791,0-1.1399.1069-1.6392.3076-1.5709.5236-2.7711,1.9706-3.1322,3.7763l-.1739.8695m4.9274-10.8308c-1.2508,0-2.5221.2126-3.7632.6594-5,1.8-7.9,6.9-7.1,12,.1.5.2,1,.4,1.5,0,.2.1.4.2.5,0,.1.1.3.2.4.2.5.4,1,.7,1.5,2.0372,3.0935,5.669,5.0486,9.4338,5.0486,1.2249,0,2.4633-.2068,3.6662-.6486,3.2-1.2,5.7-3.7,6.7-7l-6.2-2c-.4,1.3-1.4,2.3-2.7,2.8-.4807.1923-.9926.2819-1.502.2819-1.0801,0-2.1505-.4024-2.898-1.0819l13.6-4.9c0-.5-.2-1-.4-1.5l-.1-.4v-.1c0-.1-.1-.3-.2-.4-.2-.5-.4-1-.7-1.4-1.9546-3.3078-5.5488-5.2594-9.3368-5.2594h0Zm-4.2632,10.0594c.3-1.5,1.3-2.9,2.8-3.4.4807-.1923.9823-.2819,1.4811-.2819,1.0575,0,2.1035.4024,2.9189,1.0819l-7.2,2.6h0Z"></path></g><g id="path149858"><path class="cls-5" d="m462.3202,272.9559c-4.668,0-7.6689-2.2939-8.3691-2.8896l2.8105-4.0791c1.3955,1.2227,4.1201,2.2686,5.459,2.2686,1.4844,0,2.1494-.7285,2.1494-1.4502,0-.9561-1.291-1.3633-2.9248-1.8789-2.8594-.9023-6.7754-2.1387-6.7754-6.8203,0-4.6592,4.5156-6.3506,7.5508-6.3506,3.1699,0,5.0654.8477,7.5537,2.5186l-2.9102,4.3643c-2.1602-1.7227-3.4648-2.083-4.7441-2.083-1.5303,0-1.6494,1.0342-1.6494,1.3506,0,1.0176,1.3926,1.4834,3.1553,2.0732,2.8467.9531,6.7441,2.2568,6.7441,6.5264,0,3.2109-2.4893,6.4502-8.0498,6.4502Z"></path><path class="cls-4" d="m462.2201,252.0059c3.0175,0,4.8611.7868,7.2074,2.3375l-2.6214,3.932c-2.0907-1.6239-3.398-1.9695-4.6861-1.9695-1.4008,0-1.9.8265-1.9,1.6,0,1.198,1.468,1.6891,3.3265,2.311,2.9287.9799,6.5735,2.1995,6.5735,6.2891,0,3.0861-2.4118,6.2-7.8,6.2-4.2606,0-7.1138-1.9554-8.0325-2.6876l2.524-3.6638c1.4964,1.1946,4.0652,2.1514,5.4085,2.1514,1.649,0,2.4-.8812,2.4-1.7,0-1.1394-1.368-1.5713-3.1-2.118-2.7853-.8793-6.6-2.0834-6.6-6.582,0-4.4755,4.3656-6.1,7.3-6.1m0-.5c-2.9,0-7.8,1.6-7.8,6.6,0,7.5,9.7,6.5,9.7,8.7,0,.6-.6,1.2-1.9,1.2s-4.2-1.1-5.5-2.4l-3.1,4.5s3.2,3.1,8.7,3.1c5.6,0,8.3-3.3,8.3-6.7,0-7.0001-9.9-6.3-9.9-8.6,0-.3.1-1.1,1.4-1.1s2.6.4,4.8,2.2l3.2-4.8c-2.5-1.7-4.5-2.7-7.9-2.7h0Z"></path></g></g><g id="title"><path id="path149863" class="cls-3" d="m158.1202,193.2059v-51.5h56.6v-28.4h-56.5l-31.3,28.4v51.5l31.3,28v.3h56.5v-28.3h-56.6Z"></path><path id="path149865" class="cls-3" d="m314.9202,153.5059c0-22-18-40.1-40.2-40.1h-52.5v28.4h52.5c6.5,0,11.7,5.2,11.7,11.7s-5.2,11.7-11.7,11.7h-17.1l-11.2,28.5,22.8,27.6h39.8l-26-28.5c18-3.7,31.9-19.9,31.9-39.3Z"></path><path id="path149867" class="cls-3" d="m433.8202,192.9059v-51.2l-31.3-28.4h-46.5v.2l-31.1,28.2v51.2l31.1,28.4h46.5l31.3-28.4Zm-77.7-51.1h46.4v51.2h-46.4v-51.2Z"></path><path id="path149869" class="cls-3" d="m478.6202,221.3059h56.5v-28.4h-56.5v-79.5h-31.3v81.2l31.3,26.7Z"></path><path id="path149871" class="cls-3" d="m546.4202,221.3059h31.3v-107.9h-31.3v107.9Z"></path><path id="path149873" class="cls-3" d="m654.5201,167.4059l33.6-53.9h-34.1l-16,26.7-15.9-26.7h-34.1l33.6,53.9-33.6,53.9h34.1l15.9-26.7,16,26.7h34.1l-33.6-53.9Z"></path><g><polygon class="cls-1" points="73.4802 115.3213 40.9521 115.3213 .7202 223.1774 33.4621 223.1774 73.4802 115.3213"></polygon><polygon class="cls-3" points="116.2802 223.1774 75.4062 115.3213 73.4802 115.3213 58.2862 156.4094 83.5381 223.1774 116.2802 223.1774"></polygon></g></g><g><g><polyline class="cls-2" points="345.6101 70.9235 283.5614 35.9967 283.5614 35.9237 345.6135 1.003 345.6152 1 407.6639 35.9268 407.6639 35.9237 345.6118 70.8444"></polyline><line class="cls-2" x1="407.6639" y1="51.0887" x2="345.6118" y2="86.0094"></line><line class="cls-2" x1="345.6101" y1="86.0885" x2="283.5614" y2="51.1617"></line><line class="cls-2" x1="407.6639" y1="66.2537" x2="345.6118" y2="101.1744"></line><line class="cls-2" x1="345.6101" y1="101.2535" x2="283.5614" y2="66.3267"></line></g><g class="cls-6"><polygon class="cls-1" points="374.6943 21.3402 360.4099 13.2996 294.7546 33.4766 309.133 41.5701 374.6943 21.3402"></polygon><polygon class="cls-3" points="345.502 62.0419 375.5401 21.8163 374.6943 21.3402 353.6825 27.8237 331.1236 53.9484 345.502 62.0419"></polygon></g></g></g></svg>